<?xml version="1.0" encoding="utf-8"?>
<!-- Generator: Adobe Illustrator 24.2.0, SVG Export Plug-In . SVG Version: 6.00 Build 0)  -->
<svg version="1.1" id="Layer_1" xmlns="http://www.w3.org/2000/svg" xmlns:xlink="http://www.w3.org/1999/xlink" x="0px" y="0px"
	 viewBox="0 0 542 192" style="enable-background:new 0 0 542 192;" xml:space="preserve">
<style type="text/css">
	.st0{fill:#36A2EB;}
	.st1{fill:#FFCE56;}
	.st2{opacity:0.8;fill:#FE6184;enable-background:new    ;}
	.st3{fill:#E7E9ED;}
	.st4{fill:#FFFFFF;}
</style>
<path class="st0" d="M184.3,96.6c-22.4,0.4-17.7,14.6-33.5,18.2c-16,3.6-18.5-39.1-34.6-39.1c-16,0-19.6,41.5-39.6,70l-0.6,0.8
	l43,24.8l65.2-37.7L184.3,96.6L184.3,96.6z"/>
<path class="st1" d="M184.3,95.3c-7.5-9.6-12.6-20.7-23.5-20.7c-19.3,0-14.2,31.5-35.6,31.5s-23.6-33.9-47.8-2
	c-7.7,10.2-13.9,21.5-18.8,32.2l60.5,34.9l65.2-37.7V95.3z"/>
<path class="st2" d="M53.8,108.3C61.2,88,64.3,71.6,78.3,71.6c21.4,0,26.5,60,44.8,53.9c18.3-6.1,16.3-38.7,44.8-38.7
	c5.4,0,11,3.3,16.4,8.7v38.1l-65.2,37.7l-65.2-37.7L53.8,108.3L53.8,108.3z"/>
<path class="st3" d="M119,176l-69.3-40V56L119,16l69.3,40v80L119,176z M57.8,131.3l61.2,35.3l61.2-35.3V60.7L119,25.4L57.8,60.7
	V131.3z"/>
<g>
	<path d="M488,99.6c0,41.9-34,75.9-75.9,75.9s-75.9-34-75.9-75.9s34-75.9,75.9-75.9C454,23.7,488,57.7,488,99.6z"/>
	<path class="st4" d="M445.3,51.8c-7.7,0.3-14.4,4.5-19.5,10.4c-5.6,6.5-9.2,14.1-11.9,21.9c-4.8-3.9-8.4-8.9-16.1-11.1
		c-5.9-1.7-12.1-1-17.8,3.2c-2.7,2-4.6,5.1-5.4,7.9c-2.3,7.4,2.4,14.1,4.5,16.4l4.7,5c1,1,3.3,3.5,2.1,7.2c-1.2,4-6,6.6-11,5.1
		c-2.2-0.7-5.4-2.3-4.7-4.6c0.3-0.9,1-1.7,1.3-2.5c0.3-0.7,0.5-1.2,0.6-1.5c0.9-2.9-0.3-6.8-3.5-7.7c-2.9-0.9-5.9-0.2-7.1,3.6
		c-1.3,4.3,0.7,12.1,11.8,15.5c12.9,4,23.8-3.1,25.4-12.2c1-5.7-1.6-10-6.4-15.5l-3.9-4.3c-2.3-2.3-3.1-6.3-0.7-9.4
		c2-2.6,5-3.7,9.7-2.4c7,1.9,10.1,6.7,15.3,10.6c-2.1,7-3.5,14.1-4.8,20.4l-0.8,4.7c-3.7,19.4-6.5,30.1-13.9,36.2
		c-1.5,1.1-3.6,2.6-6.8,2.7c-1.7,0.1-2.2-1.1-2.2-1.6c0-1.2,1-1.7,1.6-2.2c1-0.5,2.5-1.4,2.4-4.3c-0.1-3.4-2.9-6.3-6.9-6.1
		c-3,0.1-7.6,2.9-7.4,8.1c0.2,5.4,5.2,9.4,12.7,9.1c4-0.1,13-1.8,21.9-12.3c10.3-12.1,13.2-26,15.4-36.1l2.4-13.4
		c1.3,0.2,2.8,0.3,4.4,0.3c12.9,0.3,19.3-6.4,19.4-11.2c0.1-2.9-1.9-5.8-4.7-5.8c-2,0.1-4.5,1.4-5.1,4.1s4.1,5.1,0.4,7.5
		c-2.6,1.7-7.3,2.9-13.8,1.9l1.2-6.6c2.4-12.5,5.4-27.9,16.8-28.3c0.8,0,3.9,0,3.9,2c0,0.7-0.1,0.8-0.9,2.4
		c-0.8,1.2-1.1,2.2-1.1,3.4c0.1,3.2,2.5,5.3,6.1,5.2c4.7-0.2,6-4.7,6-7.1C458.8,55,453,51.5,445.3,51.8z"/>
</g>
</svg>
